<?xml version="1.0" encoding="utf-8"?>
<!-- Generator: Adobe Illustrator 25.4.1, SVG Export Plug-In . SVG Version: 6.00 Build 0)  -->
<svg version="1.1" id="Layer_1" xmlns="http://www.w3.org/2000/svg" xmlns:xlink="http://www.w3.org/1999/xlink" x="0px" y="0px"
	 viewBox="0 0 210 240" style="enable-background:new 0 0 210 240;" xml:space="preserve">
<style type="text/css">
	.st0{fill:#FF5722;}
	.st1{fill:#FFCCBC;}
</style>
<path class="st0" d="M130,75v140H20c-11,0-20-9-20-20V75H130z"/>
<path class="st1" d="M40,25v170c0,11-9,20-20,20h145c11,0,20-9,20-20V25H40z"/>
<path class="st0" d="M70,50h90v20H70V50z M70,85h40v10H70V85z M120,85h40v10h-40V85z M70,105h40v10H70V105z M120,105h40v10h-40V105z
	 M70,125h40v10H70V125z M120,125h40v10h-40V125z M70,145h40v10H70V145z M120,145h40v10h-40V145z M70,165h40v10H70V165z M120,165h40
	v10h-40V165z M70,185h40v10H70V185z M120,185h40v10h-40V185z"/>
</svg>
